<svg id="Layer_1" data-name="Layer 1" xmlns="http://www.w3.org/2000/svg" xmlns:xlink="http://www.w3.org/1999/xlink" viewBox="0 0 500.17 383">
  <defs>
    <style>
      .cls-1 {
        fill: url(#linear-gradient);
      }

      .cls-2 {
        fill: #fff;
      }

      .cls-3 {
        fill: #fffdbe;
      }

      .cls-4 {
        fill: #f8ff24;
      }
    </style>
    <linearGradient id="linear-gradient" x1="250.17" y1="382.66" x2="250.17" y2="-0.34" gradientUnits="userSpaceOnUse">
      <stop offset="0" stop-color="#fff"/>
      <stop offset="0.45" stop-color="#b3d9ff"/>
      <stop offset="0.67" stop-color="#94c9ff"/>
      <stop offset="0.72" stop-color="#94c9ff"/>
      <stop offset="0.99" stop-color="#94c9ff"/>
    </linearGradient>
  </defs>
  <path class="cls-1" d="M500.17,382.66H.17V25.1A25.44,25.44,0,0,1,25.61-.34H474.73A25.44,25.44,0,0,1,500.17,25.1Z" transform="translate(0 0.34)"/>
  <path class="cls-2" d="M245.93,144.76A23.22,23.22,0,0,1,222.7,168H139.64a23.24,23.24,0,0,1-16.43-39.67,22.69,22.69,0,0,1,3.64-3,29.65,29.65,0,1,1,53.24-25.22,29.66,29.66,0,0,1,44.82,21.5A23.21,23.21,0,0,1,245.93,144.76Z" transform="translate(0 0.34)"/>
  <path class="cls-2" d="M459.1,225.93A20.06,20.06,0,0,1,439,246H367.3a20.07,20.07,0,0,1-14.19-34.26,20.3,20.3,0,0,1,3.14-2.56,25.62,25.62,0,1,1,46-21.79A25.61,25.61,0,0,1,441,206,20.07,20.07,0,0,1,459.1,225.93Z" transform="translate(0 0.34)"/>
  <path class="cls-2" d="M120.88,188.71A24.29,24.29,0,0,1,96.58,213H9.75A24.18,24.18,0,0,1,0,211V130.85a31,31,0,0,1,52,11.21A31,31,0,0,1,98.9,164.53,24.29,24.29,0,0,1,120.88,188.71Z" transform="translate(0 0.34)"/>
  <g>
    <circle class="cls-3" cx="362" cy="117.34" r="74"/>
    <circle class="cls-4" cx="362" cy="117.34" r="66.27"/>
  </g>
</svg>
