<svg id="Layer_1" data-name="Layer 1" xmlns="http://www.w3.org/2000/svg" xmlns:xlink="http://www.w3.org/1999/xlink" viewBox="0 0 500 383">
  <defs>
    <style>
      .cls-1 {
        fill: url(#linear-gradient);
      }

      .cls-2 {
        fill: #56567c;
      }

      .cls-3 {
        fill: #fff598;
      }

      .cls-4 {
        fill: #e3d873;
      }
    </style>
    <linearGradient id="linear-gradient" x1="250" y1="382.5" x2="250" y2="-0.5" gradientUnits="userSpaceOnUse">
      <stop offset="0" stop-color="#fff"/>
      <stop offset="0.12" stop-color="#ddeaf8"/>
      <stop offset="0.2" stop-color="#cce0f4"/>
      <stop offset="0.45" stop-color="#6e799d"/>
      <stop offset="0.62" stop-color="#323766"/>
      <stop offset="0.7" stop-color="#1a1d50"/>
      <stop offset="0.71" stop-color="#191b4f"/>
      <stop offset="0.85" stop-color="#0f1146"/>
      <stop offset="0.99" stop-color="#0c0d43"/>
    </linearGradient>
  </defs>
  <path class="cls-1" d="M500,382.5H0V24.94A25.44,25.44,0,0,1,25.44-.5H474.56A25.44,25.44,0,0,1,500,24.94Z" transform="translate(0 0.5)"/>
  <path class="cls-2" d="M478,140.43a20.08,20.08,0,0,1-20.07,20.07H386.2A20.07,20.07,0,0,1,372,126.24a20.3,20.3,0,0,1,3.14-2.56,25.62,25.62,0,1,1,46-21.79,25.61,25.61,0,0,1,38.71,18.57A20.07,20.07,0,0,1,478,140.43Z" transform="translate(0 0.5)"/>
  <path class="cls-2" d="M197.29,161.46a30.73,30.73,0,0,1-30.73,30.73H56.73A30.74,30.74,0,0,1,39.81,135.8a39.22,39.22,0,1,1,70.41-33.35,39.22,39.22,0,0,1,59.27,28.42A30.73,30.73,0,0,1,197.29,161.46Z" transform="translate(0 0.5)"/>
  <path class="cls-3" d="M220.07,186.72a89,89,0,1,1-75.32-114.6,75.86,75.86,0,0,0,75.32,114.6Z" transform="translate(0 0.5)"/>
  <path class="cls-4" d="M197.22,224.22a89,89,0,1,1-111.15-138,89,89,0,0,0,111.15,138Z" transform="translate(0 0.5)"/>
  <path class="cls-2" d="M123.29,228.18A29.29,29.29,0,0,1,94,257.47H0V146.85a37.37,37.37,0,0,1,40.28,25.07A37.4,37.4,0,0,1,96.79,199,29.29,29.29,0,0,1,123.29,228.18Z" transform="translate(0 0.5)"/>
</svg>
